<?xml version="1.0" encoding="UTF-8" standalone="no"?>
<!DOCTYPE svg PUBLIC "-//W3C//DTD SVG 1.1//EN" "http://www.w3.org/Graphics/SVG/1.1/DTD/svg11.dtd">
<svg width="100%" height="100%" viewBox="0 0 24 21" version="1.1" xmlns="http://www.w3.org/2000/svg" xmlns:xlink="http://www.w3.org/1999/xlink" xml:space="preserve" xmlns:serif="http://www.serif.com/" style="fill-rule:evenodd;clip-rule:evenodd;stroke-linejoin:round;stroke-miterlimit:1.41421;">
  <path d="M21.052,3.234C22.064,2.596 22.84,1.584 23.204,0.378C22.257,0.971 21.211,1.399 20.094,1.631C19.204,0.626 17.93,0 16.521,0C13.818,0 11.627,2.312 11.627,5.163C11.627,5.568 11.668,5.962 11.752,6.339C7.684,6.123 4.077,4.07 1.661,0.944C1.24,1.709 0.999,2.596 0.999,3.541C0.999,5.332 1.863,6.912 3.177,7.84C2.374,7.813 1.619,7.578 0.958,7.194L0.958,7.258C0.958,9.76 2.645,11.848 4.887,12.321C4.475,12.442 4.044,12.502 3.596,12.502C3.28,12.502 2.972,12.471 2.675,12.411C3.297,14.461 5.106,15.956 7.249,15.996C5.572,17.382 3.461,18.206 1.168,18.206C0.773,18.206 0.382,18.184 0,18.135C2.167,19.599 4.74,20.455 7.505,20.455C16.511,20.455 21.433,12.587 21.433,5.763C21.433,5.538 21.431,5.315 21.421,5.095C22.377,4.367 23.21,3.457 23.864,2.421C22.985,2.832 22.041,3.11 21.052,3.234Z"/>
</svg>
