<?xml version="1.0" encoding="UTF-8" standalone="no"?>
<!DOCTYPE svg PUBLIC "-//W3C//DTD SVG 1.1//EN" "http://www.w3.org/Graphics/SVG/1.1/DTD/svg11.dtd">
<svg width="100%" height="100%" viewBox="0 0 23 23" version="1.1" xmlns="http://www.w3.org/2000/svg" xmlns:xlink="http://www.w3.org/1999/xlink" xml:space="preserve" xmlns:serif="http://www.serif.com/" style="fill-rule:evenodd;clip-rule:evenodd;stroke-linejoin:round;stroke-miterlimit:1.41421;">
  <path d="M0.573,7.288L5.003,7.288L5.003,22.726L0.573,22.726L0.573,7.288ZM2.675,5.357L2.643,5.357C1.04,5.357 0,4.176 0,2.682C0,1.157 1.07,0 2.706,0C4.34,0 5.345,1.154 5.377,2.678C5.377,4.172 4.34,5.357 2.675,5.357ZM22.727,22.727L17.704,22.727L17.704,14.737C17.704,12.646 16.919,11.22 15.191,11.22C13.869,11.22 13.134,12.181 12.792,13.111C12.664,13.443 12.684,13.907 12.684,14.373L12.684,22.727L7.708,22.727C7.708,22.727 7.772,8.574 7.708,7.288L12.684,7.288L12.684,9.711C12.978,8.651 14.568,7.139 17.106,7.139C20.254,7.139 22.727,9.361 22.727,14.142L22.727,22.727Z"/>
</svg>
