<?xml version="1.0" encoding="UTF-8" standalone="no"?>
<!DOCTYPE svg PUBLIC "-//W3C//DTD SVG 1.1//EN" "http://www.w3.org/Graphics/SVG/1.1/DTD/svg11.dtd">
<svg width="100%" height="100%" viewBox="0 0 23 23" version="1.1" xmlns="http://www.w3.org/2000/svg" xmlns:xlink="http://www.w3.org/1999/xlink" xml:space="preserve" xmlns:serif="http://www.serif.com/" style="fill-rule:evenodd;clip-rule:evenodd;stroke-linejoin:round;stroke-miterlimit:1.41421;">
  <path d="M18.335,0L4.392,0C1.971,0 0,1.97 0,4.392L0,18.335C0,20.758 1.971,22.727 4.392,22.727L18.335,22.727C20.756,22.727 22.727,20.758 22.727,18.335L22.727,4.392C22.727,1.97 20.756,0 18.335,0ZM19.595,2.62L20.097,2.618L20.097,6.47L16.257,6.482L16.244,2.63L19.595,2.62ZM8.121,9.031C8.847,8.023 10.029,7.363 11.364,7.363C12.699,7.363 13.88,8.023 14.607,9.031C15.081,9.688 15.364,10.492 15.364,11.364C15.364,13.568 13.57,15.363 11.364,15.363C9.159,15.363 7.364,13.568 7.364,11.364C7.364,10.492 7.647,9.688 8.121,9.031ZM20.513,18.335C20.513,19.536 19.536,20.513 18.335,20.513L4.392,20.513C3.191,20.513 2.214,19.536 2.214,18.335L2.214,9.031L5.608,9.031C5.314,9.752 5.15,10.539 5.15,11.364C5.15,14.79 7.937,17.579 11.364,17.579C14.791,17.579 17.579,14.79 17.579,11.364C17.579,10.539 17.412,9.752 17.12,9.031L20.513,9.031L20.513,18.335Z"/>
</svg>
